<svg xmlns="http://www.w3.org/2000/svg" viewBox="0 0 256 256">
  <rect x="1" y="1" width="254" height="254" rx="58" fill="#ffffff" stroke="#e6e6e6" stroke-width="2"/>
  <path fill="#ff3b30" transform="translate(68.67 86.00) scale(0.02148 -0.02148)" d="M145 0V1466H588L854 466L1117 1466H1561V0H1286V1154L995 0H710L420 1154V0Z"/>
  <path fill="#ff3b30" transform="translate(113.33 86.00) scale(0.02148 -0.02148)" d="M89 724Q89 948 156 1100Q206 1212 292.5 1301.0Q379 1390 482 1433Q619 1491 798 1491Q1122 1491 1316.5 1290.0Q1511 1089 1511 731Q1511 376 1318.0 175.5Q1125 -25 802 -25Q475 -25 282.0 174.5Q89 374 89 724ZM394 734Q394 485 509.0 356.5Q624 228 801 228Q978 228 1091.5 355.5Q1205 483 1205 738Q1205 990 1094.5 1114.0Q984 1238 801 1238Q618 1238 506.0 1112.5Q394 987 394 734Z"/>
  <path fill="#ff3b30" transform="translate(155.55 86.00) scale(0.02148 -0.02148)" d="M152 0V1466H440L1040 487V1466H1315V0H1018L427 956V0Z"/>
  <path fill="#1d1d1f" transform="translate(41.58 212.00) scale(0.07324 -0.07324)" d="M806 0H525V1059Q371 915 162 846V1101Q272 1137 401.0 1237.5Q530 1338 578 1472H806Z"/>
  <path fill="#1d1d1f" transform="translate(131.00 212.00) scale(0.07324 -0.07324)" d="M87 1185V1446H1048V1242Q929 1125 806.0 906.0Q683 687 618.5 440.5Q554 194 555 0H284Q291 304 409.5 620.0Q528 936 726 1185Z"/>
</svg>
