<svg xmlns="http://www.w3.org/2000/svg" version="1.1" xmlns:xlink="http://www.w3.org/1999/xlink" width="268px" height="250px"><svg xmlns="http://www.w3.org/2000/svg" height="250px" width="268px" id="SvgjsSvg1007" data-name="Layer 1" viewBox="0 0 280 280" version="1.1">
  <defs id="SvgjsDefs1006">
    <style id="SvgjsStyle1005">.cls-1{fill:#231f20;}</style>
  </defs>
  <path class="cls-1" d="M 173.036 92.046 L 101.566 92.046 L 101.566 264.156 L 85.756 264.156 L 85.756 76.246 L 173.036 76.246 C 189.926 76.252 203.616 89.946 203.616 106.836 C 203.616 114.947 200.394 122.725 194.659 128.46 C 188.924 134.194 181.146 137.416 173.036 137.416 L 117.346 137.416 L 117.346 121.626 L 173.036 121.626 C 181.204 121.626 187.826 115.004 187.826 106.836 C 187.826 98.668 181.204 92.046 173.036 92.046 Z M 218.566 106.836 C 218.538 131.882 198.241 152.179 173.196 152.206 L 117.346 152.206 L 117.346 168.006 L 173.156 168.006 C 206.939 168.006 234.326 140.619 234.326 106.836 C 234.326 90.613 227.881 75.054 216.409 63.582 C 204.938 52.111 189.379 45.666 173.156 45.666 L 54.166 45.666 L 54.166 264.156 L 69.956 264.156 L 69.956 61.466 L 173.156 61.466 C 198.217 61.472 218.538 81.775 218.566 106.836 Z M 172.036 14.156 L 22.566 14.156 L 22.566 264.156 L 38.366 264.156 L 38.366 29.956 L 172.036 29.956 C 203.112 29.974 231.121 48.699 243.016 77.408 C 254.911 106.118 248.353 139.165 226.396 161.156 C 212.011 175.622 192.436 183.731 172.036 183.676 L 117.346 183.676 L 117.346 199.476 L 172.036 199.476 C 223.221 199.476 264.716 157.982 264.716 106.796 C 264.699 55.624 223.208 14.151 172.036 14.156 Z" id="SvgjsPath1004" style="fill:#239870;fill-opacity:0.92"></path>
</svg><style>@media (prefers-color-scheme: light) { :root { filter: contrast(1) brightness(0.9); } }
@media (prefers-color-scheme: dark) { :root { filter: contrast(0.9090909090909091) brightness(1.5); } }
</style></svg>